<?xml version="1.0" encoding="UTF-8"?>
<svg xmlns="http://www.w3.org/2000/svg" viewBox="0 0 1418.82 212.53">
  <defs>
    <style>
      .cls-1, .cls-2, .cls-3, .cls-4 {
        stroke-width: 0px;
      }

      .cls-1, .cls-3 {
        fill: #e9921d;
      }

      .cls-1, .cls-4 {
        fill-rule: evenodd;
      }

      .cls-2, .cls-4 {
        fill: #180e1b;
      }
    </style>
  </defs>
  <g id="Cargo">
    <g>
      <path class="cls-3" d="m220.65,100.56c0-17.46,13.09-23.03,32.73-23.03,6.18,0,12,.61,19.88,2.18.61,5.33.61,13.21,0,18.55-5.7-1.09-10.91-1.58-15.76-1.58-7.76,0-13.7.24-13.7,8.85v29.21c0,8.73,5.94,9.09,13.7,9.09,4.36,0,10.79-1.09,15.88-2.18,1.21,5.7,1.7,12.12,1.7,18.31-8.36,2.3-16.24,3.39-21.7,3.39-19.64,0-32.73-5.58-32.73-23.03v-39.76Z"/>
      <path class="cls-3" d="m325.38,148.08h-19.28l-3.27,13.82c-6.67.48-17.09.48-23.76,0l25.46-82.8c7.03-.49,15.64-.49,22.67,0l25.46,82.8c-6.67.48-17.34.48-24,0l-3.27-13.82Zm-9.7-40.85l-5.33,22.79h10.79l-5.46-22.79Z"/>
      <path class="cls-3" d="m358.96,161.9v-82.8c6.91-.61,16.73-.49,23.15,0v64.25h25.21c.61,5.33.61,13.21,0,18.55h-48.37Z"/>
      <path class="cls-3" d="m414.72,161.9v-82.8h48.98c.61,5.33.61,13.09,0,18.43h-25.82v13.7h24.61c.61,5.33.61,12.97,0,18.3h-24.61v13.82h25.82c.61,5.33.61,13.21,0,18.55h-48.98Z"/>
      <path class="cls-3" d="m473.27,161.9v-82.8h28.97c20.49,0,33.22,5.58,33.22,22.18v38.31c0,16.61-12.73,22.31-33.34,22.31h-28.85Zm39.03-56.01c0-6.55-4.61-7.64-10.06-7.64h-5.82v44.12h5.82c5.46,0,10.06-1.09,10.06-7.27v-29.21Z"/>
      <path class="cls-3" d="m607.95,141.05c0,16.73-12.73,22.31-32,22.31s-32-5.58-32-22.31v-41.34c0-16.61,12.73-22.19,32-22.19s32,5.58,32,22.19v41.34Zm-23.15-36.97c0-6.67-4.12-7.39-8.85-7.39s-8.85.73-8.85,7.39v32.37c0,6.67,4.24,7.39,8.85,7.39s8.85-.73,8.85-7.39v-32.37Z"/>
      <path class="cls-3" d="m640.44,121.17v40.73c-7.27.73-15.64.73-22.91,0v-82.8c7.88-.49,16.12-.49,24.12,0l17.21,41.94v-41.94c8.24-.49,15.15-.49,22.91,0v82.8c-8.61.48-16.12.48-24.61,0l-16.73-40.73Z"/>
      <path class="cls-3" d="m692.2,79.11c6.67-.49,16.73-.49,23.15,0v82.8c-6.42.48-16.49.48-23.15,0v-82.8Z"/>
      <path class="cls-3" d="m725.78,161.9v-82.8h48.98c.61,5.33.61,13.09,0,18.43h-25.82v13.7h24.61c.61,5.33.61,12.97,0,18.3h-24.61v13.82h25.82c.61,5.33.61,13.21,0,18.55h-48.98Z"/>
      <path class="cls-2" d="m863.73,120.45l-8.97,19.15c-5.09.49-8.49.49-13.58,0l-8.85-18.79v41.09c-6.43.48-16.36.48-23.03,0v-82.8c6.67-.49,17.7-.49,24.25,0l14.55,32.97,14.67-32.97c6.67-.49,17.46-.49,24,0v82.8c-6.43.48-16.37.48-23.03,0v-41.46Z"/>
      <path class="cls-2" d="m960.23,141.05c0,16.73-12.73,22.31-32,22.31s-32-5.58-32-22.31v-41.34c0-16.61,12.73-22.19,32-22.19s32,5.58,32,22.19v41.34Zm-23.15-36.97c0-6.67-4.12-7.39-8.85-7.39s-8.85.73-8.85,7.39v32.37c0,6.67,4.24,7.39,8.85,7.39s8.85-.73,8.85-7.39v-32.37Z"/>
      <path class="cls-2" d="m969.8,79.11c6.67-.49,16.73-.49,23.16,0v82.8c-6.43.48-16.49.48-23.16,0v-82.8Z"/>
      <path class="cls-2" d="m1026.29,121.17v40.73c-7.27.73-15.64.73-22.91,0v-82.8c7.88-.49,16.12-.49,24.12,0l17.21,41.94v-41.94c8.24-.49,15.15-.49,22.91,0v82.8c-8.61.48-16.12.48-24.61,0l-16.73-40.73Z"/>
      <path class="cls-2" d="m1129.82,143.84c0,14.06-11.03,19.52-28.97,19.52-6.91,0-15.76-.49-24.12-1.82-.85-5.33-.85-13.82,0-19.15,9.09,1.21,16.24,1.82,22.18,1.82,4.36,0,7.88-.36,7.88-4v-3.76c0-3.76-.49-4.61-7.15-6.79l-13.46-4.49c-6.18-2.06-9.7-6.67-9.7-19.52v-8.61c0-14.3,11.88-19.52,28.97-19.52,7.51,0,14.06.49,23.28,2.67.85,5.21.85,13.33,0,18.55-8.85-1.82-14.55-2.3-21.09-2.3-4.85,0-8.12.24-8.12,4.12v3.03c0,3.15.73,4.24,7.15,6.55l13.94,4.97c6.42,2.3,9.21,6.55,9.21,19.15v9.58Z"/>
      <path class="cls-2" d="m1162.55,100.56c0-17.46,13.09-23.03,32.73-23.03,6.18,0,12,.61,19.88,2.18.61,5.33.61,13.21,0,18.55-5.7-1.09-10.91-1.58-15.76-1.58-7.76,0-13.7.24-13.7,8.85v29.21c0,8.73,5.94,9.09,13.7,9.09,4.36,0,10.79-1.09,15.88-2.18,1.21,5.7,1.7,12.12,1.7,18.31-8.37,2.3-16.24,3.39-21.7,3.39-19.64,0-32.73-5.58-32.73-23.03v-39.76Z"/>
      <path class="cls-2" d="m1264.86,130.02h-16.36v31.88c-6.43.48-16.49.48-23.16,0v-82.8c6.67-.49,16.73-.49,23.16,0v30.31h16.36v-30.31c6.67-.49,16.73-.49,23.16,0v82.8c-6.43.48-16.49.48-23.16,0v-31.88Z"/>
      <path class="cls-2" d="m1298.44,161.9v-82.8h48.97c.61,5.33.61,13.09,0,18.43h-25.82v13.7h24.61c.61,5.33.61,12.97,0,18.3h-24.61v13.82h25.82c.61,5.33.61,13.21,0,18.55h-48.97Z"/>
      <path class="cls-2" d="m1356.99,79.11h26.79c20,0,32.61,5.58,32.61,20.97v13.33c0,8.61-4.12,14.06-11.15,17.21,5.46,9.94,9.94,21.22,13.58,31.28-6.79.48-16.85.48-23.76,0-3.27-8.85-7.03-18.67-11.76-27.76h-3.15v27.76c-6.91.48-16.24.48-23.16,0v-82.8Zm36.25,26.55c0-6.55-4.48-7.39-9.82-7.39h-3.27v17.21h3.27c5.33,0,9.82-.85,9.82-7.39v-2.42Z"/>
    </g>
  </g>
  <g id="LOGO">
    <g id="Layer_7" data-name="Layer 7">
      <path class="cls-1" d="m212.41,180.53c-48.87-16.38-71.95,19.09-114.71,19.09C43.74,199.63,0,157.36,0,105.22,0,66.01,23.2,35.49,55,21.32c25.14-11.19,63.08-9.33,89.99-9.33v1.8c-27.79,0-66.78,3.34-90.41,19.1C31.77,48.11,15.97,72.81,15.97,102.82c0,36.42,24.71,67.55,59.59,80.04,52.49,18.8,86.15-34.14,136.85-2.33h0Z"/>
    </g>
    <g id="Layer_8" data-name="Layer 8">
      <path class="cls-4" d="m163.52,53.05c-5.53,3.08-11.44,5.8-17.68,8.1-4.17-10.97-9.92-20.81-16.89-29.03,5.96,8.73,10.83,18.84,14.33,29.94-11.38,3.94-23.79,6.5-36.87,7.38-.78.05-1.56.1-2.33.14l-1.44-49.96c24.9,1.84,46.77,14.56,60.88,33.43h0Zm-115.19,97.5c-3.38,1.26-6.67,2.66-9.84,4.17l-.26-.3c3.25-1.72,6.62-3.32,10.1-4.78v.91h0Zm5.8-14.15c-2.92-10.14-4.55-21.07-4.62-32.48l-30.74-.62v-.15s30.74-.65,30.74-.65c.07-13.28,2.25-25.93,6.14-37.44-7.45-2.61-14.47-5.81-20.95-9.54l.13-.17c6.58,3.43,13.69,6.33,21.21,8.59,4.23-12.09,10.35-22.89,17.9-31.8-6.43,9.42-11.6,20.46-15.14,32.61,13.17,3.67,27.51,5.45,42.43,4.97l1.4-50.08c-.56-.04-1.13-.08-1.69-.11,6.52-.9,13.15-1.4,19.84-1.65,39.08,8.71,68.29,43.59,68.29,85.3,0,26.96-12.21,51.06-31.39,67.09l-.23.05c2.08-5.16,4.58-9.65,6.91-13.82,3.31-5.94,6.28-11.28,7.55-17.04,4.82-10.01,7.71-21.13,8.18-32.87l-27.26-.69-1.46,4.87-1.28-4.8-46.44-1.01-1.48,7.11-.94-7.17-48.55-.88c-.71,6.79.66,25.47,1.45,32.4h0Zm4.31-70.4c-3.17,11.33-5.7,23.6-5.76,36.42l48.39-.91.07-28.56c-15.1-.21-29.53-2.66-42.7-6.94h0Zm94.68,34.38c-.27-11.98-2.04-23.48-5.44-34,6.91-2.13,13.48-4.74,19.65-7.76-.22-.36-.45-.71-.68-1.07,7.96,12.23,12.81,26.67,13.43,42.19l-26.96.63h0Zm-8.33-33.14c2.8,10.38,5.06,21.5,5.28,33.12l-46.27,1.06.37-28.47c3.15-.02,6.33-.13,9.53-.35,10.87-.73,21.29-2.58,31.08-5.37h0Z"/>
    </g>
    <g id="Layer_3" data-name="Layer 3">
      <path class="cls-4" d="m247.23,200.85c-52.27-28.39-75.66-6.78-108.12,5.77-19.28,7.45-47.63,11.63-87.45-11.32,13.19,6,27.92,9.35,43.47,9.35,63.55,0,77.77-51.25,152.1-3.81h0Z"/>
    </g>
    <g id="Layer_4" data-name="Layer 4">
      <path class="cls-1" d="m142.19,6.81l2.12.4,3.56,1.92-2.05-8.11,3.79-.07,6.96,8.68,18.38-.48-10.02-9.14,2.47.18,16.59,8.36s12.63-.42,16.42-.2c2.04.12,3.31,1.38,4.6,2.69,1.6.68,1.88,2.25,1.03,3.05-.43.41-1.71.85-3.67.95-6.1.31-17.21.73-17.21.73l-12.45,16.71-2.1-.09,5.31-16.83-22.19-.33-3.86,5.06h-1.62c.52-3.18.36-6.04.24-7.74-2.15-1.91-4.83-4.12-6.31-5.75h0Z"/>
    </g>
    <g id="Layer_5" data-name="Layer 5">
      <path class="cls-4" d="m54.19,166.79v-21.07l10.11-10.63,5.37.35v-10.65c0-2.36,5.27-2.22,5.27,0v10.99l3.1.2-.16-.02v-7.86c0-.77,2.2-.81,2.2,0v8.01l2.15.14v-9.31l7.3-6.55,10.98,1.78,3.69-3.31,19.82,3.22c6.36-2.26,13.91-4.79,20.8-6.47,13.09-3.2,14.06-2.71,19.04,8.36,8.44,18.38-4.65,27.64-11.98,46.83-4.7,1.32-9.37,2.87-14.07,4.41l-.55.18c.48-4.27,1.19-8.51,2.22-11.69,5.11-15.72,16.52-24.71,17.65-45.57-3.88,25.18-18.69,27.96-20.94,57.62-18.04,5.93-36.59,11.61-58.25,3.85h0c-8.69-3.1-16.69-7.45-23.75-12.81h0Zm12.12-29.13l7.05.29v5.95l-7.05-.28v-5.95h0Zm39.31-8.38c3.08-1.48,6.33-2.84,9.88-4.13,2.03-.73,4.46-1.63,7.15-2.59l-17.31-2.6.28,9.31h0Zm-5.87-6.43l-9.08-1.36.49,16.4c1.93-1.37,3.83-2.63,5.74-3.82v-8.66l2.85-2.55h0Zm-23.45,15.31l5.94.16v-1.65l-17.77-1.08-.04,24.32c6.87-5.99,12.6-10.98,17.81-15.2v-.44l-5.94-.16v-5.95h0Z"/>
    </g>
  </g>
</svg>